<?xml version="1.0" encoding="utf-8"?>
<!-- Generator: Adobe Illustrator 28.2.0, SVG Export Plug-In . SVG Version: 6.00 Build 0)  -->
<svg version="1.1" id="Capa_1" xmlns="http://www.w3.org/2000/svg" xmlns:xlink="http://www.w3.org/1999/xlink" x="0px" y="0px"
	 viewBox="0 0 450.57 156.69" style="enable-background:new 0 0 450.57 156.69;" xml:space="preserve">
<style type="text/css">
	.st0{fill:#4D4D4D;}
	.st1{fill:#721D3B;}
</style>
<g>
	<path class="st0" d="M262.53,87.12c1.29-0.79,2.72-1.18,4.27-1.18c2.33,0,4.43,0.75,6.3,2.26s2.81,3.41,2.81,5.71
		c0,1.12-0.29,2.26-0.87,3.45l-25.6,53.67c-0.84,1.77-2.1,3.14-3.78,4.09s-3.49,1.43-5.43,1.43s-3.75-0.48-5.43-1.43
		s-2.94-2.31-3.78-4.09l-25.6-53.67c-0.52-1.05-0.78-2.2-0.78-3.45c0-2.23,0.97-4.12,2.91-5.66s4.1-2.31,6.5-2.31
		c1.55,0,2.99,0.39,4.32,1.18c1.32,0.79,2.34,1.97,3.05,3.54l19.1,41.95l19.01-41.95c0.71-1.57,1.71-2.76,3.01-3.54H262.53z"/>
	<path class="st0" d="M284.4,154.13c-1.59-1.61-2.38-3.8-2.38-6.56V94.81c0-2.7,0.79-4.85,2.38-6.46c1.58-1.61,3.73-2.41,6.45-2.41
		c2.72,0,4.98,0.8,6.59,2.41s2.42,3.76,2.42,6.46v52.76c0,2.76-0.81,4.95-2.42,6.56c-1.62,1.61-3.82,2.42-6.59,2.42
		C288.08,156.55,285.98,155.75,284.4,154.13z"/>
	<path class="st0" d="M313.93,154.34c-1.42-1.47-2.13-3.57-2.13-6.31V94.44c0-2.74,0.71-4.84,2.13-6.31c1.42-1.47,3.46-2.2,6.11-2.2
		h19.59c7.56,0,14.08,1.42,19.54,4.26c5.46,2.84,9.65,6.89,12.56,12.17c2.91,5.27,4.36,11.55,4.36,18.83
		c0,7.28-1.44,13.67-4.32,18.98s-7.05,9.36-12.51,12.17c-5.46,2.8-12.01,4.21-19.64,4.21h-19.59c-2.65,0-4.69-0.73-6.11-2.2
		L313.93,154.34z M338.36,141.73c6.66,0,11.65-1.69,14.98-5.06c3.33-3.37,4.99-8.53,4.99-15.47c0-6.94-1.67-12.09-4.99-15.43
		c-3.33-3.34-8.32-5.01-14.98-5.01h-8.73v40.97H338.36z"/>
	<path class="st0" d="M450.57,148.74c0,2.18-0.86,4.02-2.57,5.54c-1.71,1.52-3.67,2.27-5.87,2.27c-1.49,0-2.85-0.4-4.07-1.19
		c-1.23-0.79-2.2-1.98-2.91-3.56l-4.36-9.99h-31.42l-4.46,9.99c-0.71,1.58-1.7,2.77-2.96,3.56c-1.26,0.79-2.64,1.19-4.12,1.19
		c-2.2,0-4.19-0.76-5.96-2.27c-1.78-1.52-2.67-3.36-2.67-5.54c0-1.19,0.29-2.41,0.87-3.66l25.6-53.6c0.84-1.78,2.08-3.15,3.73-4.1
		c1.65-0.95,3.48-1.44,5.48-1.44s3.75,0.48,5.43,1.44s2.94,2.32,3.78,4.1l25.6,53.6c0.58,1.25,0.87,2.47,0.87,3.66H450.57z
		 M424.77,128.17l-9.7-22.05l-9.7,22.05H424.77L424.77,128.17z"/>
	<path class="st0" d="M213.11,33.46c-2.61-1.44-4.63-3.51-6.06-6.21c-1.43-2.69-2.14-5.85-2.14-9.46s0.71-6.72,2.14-9.41
		s3.45-4.76,6.06-6.21c2.61-1.44,5.66-2.17,9.14-2.17c4.17,0,7.83,1.1,10.99,3.3c0.56,0.39,0.96,0.82,1.21,1.28
		c0.25,0.46,0.37,1.05,0.37,1.77c0,1.02-0.29,1.88-0.86,2.59S232.69,10,231.87,10c-0.49,0-0.94-0.07-1.33-0.22s-0.85-0.38-1.38-0.71
		c-1.15-0.69-2.23-1.18-3.25-1.48s-2.07-0.44-3.15-0.44c-2.92,0-5.1,0.88-6.53,2.63c-1.43,1.76-2.14,4.43-2.14,8.01
		s0.71,6.3,2.14,8.05c1.43,1.76,3.6,2.64,6.53,2.64c0.99,0,1.94-0.16,2.86-0.47s2.1-0.8,3.55-1.45c0.69-0.36,1.2-0.61,1.53-0.74
		s0.72-0.2,1.18-0.2c0.82,0,1.52,0.35,2.09,1.06c0.57,0.71,0.86,1.57,0.86,2.59c0,0.69-0.12,1.27-0.37,1.75s-0.65,0.91-1.21,1.3
		c-3.15,2.2-6.82,3.3-10.99,3.3c-3.48,0-6.53-0.72-9.14-2.17L213.11,33.46z"/>
	<path class="st0" d="M243.21,33.44c-2.61-1.46-4.62-3.53-6.04-6.21c-1.41-2.68-2.12-5.82-2.12-9.43s0.71-6.76,2.12-9.44
		c1.41-2.68,3.42-4.74,6.04-6.18c2.61-1.44,5.69-2.17,9.24-2.17s6.63,0.72,9.24,2.17c2.61,1.44,4.61,3.51,6.01,6.18
		c1.4,2.68,2.09,5.82,2.09,9.44s-0.71,6.76-2.12,9.43c-1.41,2.68-3.42,4.75-6.04,6.21c-2.61,1.46-5.67,2.19-9.19,2.19
		s-6.63-0.73-9.24-2.19H243.21z M258.61,25.9c1.48-1.86,2.22-4.56,2.22-8.1s-0.75-6.24-2.24-8.08c-1.5-1.84-3.54-2.76-6.13-2.76
		s-4.68,0.91-6.16,2.74c-1.48,1.82-2.22,4.52-2.22,8.1s0.74,6.29,2.22,8.13s3.53,2.76,6.16,2.76s4.68-0.93,6.16-2.78L258.61,25.9z"
		/>
	<path class="st0" d="M273.78,34.52c-0.72-0.74-1.08-1.81-1.08-3.21V4.52c0-1.37,0.4-2.47,1.21-3.29c0.8-0.82,1.9-1.23,3.28-1.23
		s2.53,0.41,3.35,1.23s1.23,1.91,1.23,3.29v23.63h11.33c2.86,0,4.29,1.26,4.29,3.76c0,1.27-0.35,2.21-1.06,2.81
		c-0.71,0.6-1.78,0.9-3.23,0.9h-16.21c-1.35,0-2.38-0.37-3.1-1.1H273.78z"/>
	<path class="st0" d="M303.67,33.44c-2.61-1.46-4.62-3.53-6.04-6.21c-1.41-2.68-2.12-5.82-2.12-9.43s0.71-6.76,2.12-9.44
		c1.41-2.68,3.42-4.74,6.04-6.18c2.61-1.44,5.69-2.17,9.24-2.17s6.63,0.72,9.24,2.17c2.61,1.44,4.61,3.51,6.01,6.18
		c1.4,2.68,2.09,5.82,2.09,9.44s-0.71,6.76-2.12,9.43c-1.41,2.68-3.42,4.75-6.04,6.21c-2.61,1.46-5.67,2.19-9.19,2.19
		c-3.52,0-6.63-0.73-9.24-2.19H303.67z M319.06,25.9c1.48-1.86,2.22-4.56,2.22-8.1s-0.75-6.24-2.24-8.08
		c-1.5-1.84-3.54-2.76-6.13-2.76c-2.59,0-4.68,0.91-6.16,2.74c-1.48,1.82-2.22,4.52-2.22,8.1s0.74,6.29,2.22,8.13
		c1.48,1.84,3.53,2.76,6.16,2.76s4.68-0.93,6.16-2.78L319.06,25.9z"/>
	<path class="st0" d="M367.05,1.25c0.79,0.83,1.18,1.91,1.18,3.24v27.07c0,1.26-0.36,2.26-1.08,2.98c-0.72,0.73-1.67,1.09-2.86,1.09
		c-1.19,0-2.09-0.36-2.83-1.09c-0.74-0.73-1.11-1.72-1.11-2.98V16.93l-5.62,10.45c-0.56,1.06-1.15,1.82-1.77,2.27
		s-1.36,0.67-2.22,0.67c-0.86,0-1.59-0.22-2.22-0.67c-0.62-0.45-1.22-1.2-1.77-2.27l-5.57-10.15v14.33c0,1.23-0.37,2.21-1.11,2.96
		s-1.7,1.12-2.88,1.12s-2.09-0.36-2.83-1.09c-0.74-0.73-1.11-1.72-1.11-2.98V4.5c0-1.33,0.4-2.41,1.21-3.24
		c0.8-0.83,1.83-1.24,3.08-1.24c0.89,0,1.69,0.26,2.41,0.77c0.72,0.52,1.33,1.25,1.82,2.21l9.07,17.22L359.86,3
		c1.02-1.99,2.4-2.98,4.14-2.98c1.25,0,2.27,0.42,3.06,1.24L367.05,1.25z"/>
	<path class="st0" d="M400.16,20.33c1.08,1.5,1.63,3.35,1.63,5.54c0,1.96-0.5,3.67-1.5,5.14c-1,1.47-2.43,2.61-4.29,3.42
		c-1.86,0.81-4.03,1.21-6.53,1.21h-13.11c-1.35,0-2.38-0.37-3.1-1.11c-0.72-0.74-1.08-1.8-1.08-3.19V4.27
		c0-1.38,0.36-2.45,1.08-3.19c0.72-0.74,1.76-1.11,3.1-1.11h12.61c3.65,0,6.54,0.83,8.7,2.5c2.15,1.67,3.23,3.92,3.23,6.75
		c0,1.82-0.48,3.43-1.43,4.83c-0.95,1.4-2.28,2.42-3.99,3.06c2.04,0.64,3.6,1.71,4.68,3.21L400.16,20.33z M381,13.98h6.45
		c1.71,0,2.96-0.27,3.74-0.81c0.79-0.54,1.18-1.4,1.18-2.58c0-1.25-0.39-2.16-1.18-2.73S389.15,7,387.45,7H381V13.98z M392.21,27.72
		c0.77-0.59,1.16-1.56,1.16-2.91s-0.39-2.32-1.16-2.91c-0.77-0.59-2.06-0.89-3.87-0.89H381v7.59h7.34
		C390.15,28.6,391.44,28.3,392.21,27.72L392.21,27.72z"/>
	<path class="st0" d="M405.16,34.42c-0.8-0.81-1.21-1.92-1.21-3.31V4.45c0-1.36,0.4-2.45,1.21-3.26c0.8-0.81,1.9-1.22,3.28-1.22
		s2.53,0.41,3.35,1.22s1.23,1.9,1.23,3.26v26.66c0,1.4-0.41,2.5-1.23,3.31c-0.82,0.81-1.94,1.22-3.35,1.22
		C407.03,35.64,405.97,35.23,405.16,34.42z"/>
	<path class="st0" d="M450.57,31.69c0,1.1-0.44,2.03-1.31,2.8c-0.87,0.77-1.87,1.15-2.98,1.15c-0.76,0-1.45-0.2-2.07-0.6
		c-0.62-0.4-1.12-1-1.48-1.8l-2.22-5.05h-15.96l-2.27,5.05c-0.36,0.8-0.86,1.4-1.5,1.8s-1.34,0.6-2.09,0.6
		c-1.12,0-2.13-0.38-3.03-1.15c-0.9-0.77-1.36-1.7-1.36-2.8c0-0.6,0.15-1.22,0.44-1.85l13.01-27.08c0.43-0.9,1.06-1.59,1.9-2.08
		c0.84-0.48,1.77-0.72,2.78-0.72s1.9,0.24,2.76,0.72c0.85,0.48,1.49,1.18,1.92,2.08l13.01,27.08
		C450.42,30.47,450.56,31.09,450.57,31.69L450.57,31.69z M437.46,21.3l-4.93-11.14L427.6,21.3h9.85H437.46z"/>
	<path class="st0" d="M205.81,73.05c-0.24-0.25-0.36-0.58-0.36-0.99V51.75c0-0.39,0.12-0.7,0.37-0.94c0.25-0.24,0.58-0.36,0.99-0.36
		h7.66c2.39,0,4.25,0.58,5.57,1.75c1.33,1.17,1.99,2.81,1.99,4.95s-0.67,3.79-2,4.98c-1.34,1.18-3.19,1.78-5.56,1.78h-6.37v8.15
		c0,0.41-0.12,0.74-0.36,0.99s-0.56,0.37-0.97,0.37S206.04,73.3,205.81,73.05L205.81,73.05z M214.21,61.71c3.47,0,5.2-1.52,5.2-4.56
		s-1.73-4.49-5.2-4.49h-6.11v9.05C208.1,61.71,214.21,61.71,214.21,61.71z"/>
	<path class="st0" d="M229.28,72.03c-1.56-0.94-2.76-2.26-3.6-3.98c-0.84-1.72-1.26-3.75-1.26-6.08s0.41-4.4,1.24-6.13
		c0.83-1.73,2.03-3.06,3.59-3.98c1.56-0.92,3.41-1.38,5.54-1.38s3.98,0.46,5.54,1.38c1.56,0.92,2.76,2.25,3.59,3.98
		s1.24,3.76,1.24,6.1s-0.42,4.37-1.26,6.1c-0.84,1.73-2.04,3.06-3.6,4c-1.56,0.93-3.4,1.4-5.51,1.4S230.84,72.97,229.28,72.03
		L229.28,72.03z M240.43,68.79c1.35-1.6,2.02-3.89,2.02-6.86s-0.67-5.26-2-6.85c-1.34-1.59-3.22-2.39-5.66-2.39s-4.29,0.8-5.64,2.4
		s-2.02,3.88-2.02,6.83s0.67,5.23,2.02,6.85c1.35,1.61,3.23,2.42,5.64,2.42s4.29-0.8,5.64-2.41V68.79z"/>
	<path class="st0" d="M253.58,73.05c-0.25-0.25-0.37-0.58-0.37-0.99V52.72h-6.95c-0.39,0-0.69-0.1-0.91-0.29s-0.32-0.47-0.32-0.84
		s0.11-0.65,0.32-0.84s0.52-0.29,0.91-0.29h16.58c0.39,0,0.69,0.1,0.9,0.29c0.22,0.19,0.32,0.47,0.32,0.84s-0.11,0.65-0.32,0.84
		c-0.22,0.19-0.52,0.29-0.9,0.29h-6.95v19.34c0,0.41-0.12,0.74-0.36,0.99s-0.56,0.37-0.97,0.37s-0.74-0.12-0.99-0.37L253.58,73.05z"
		/>
	<path class="st0" d="M266.61,73.06c-0.25-0.24-0.37-0.55-0.37-0.94V51.77c0-0.39,0.12-0.7,0.37-0.94c0.25-0.24,0.58-0.36,0.99-0.36
		h12.09c0.39,0,0.69,0.1,0.91,0.29c0.21,0.2,0.32,0.47,0.32,0.81s-0.11,0.62-0.32,0.82c-0.22,0.2-0.52,0.29-0.91,0.29h-10.83v7.98
		h10.18c0.39,0,0.69,0.1,0.91,0.29c0.21,0.2,0.32,0.47,0.32,0.82s-0.11,0.62-0.32,0.81c-0.22,0.2-0.52,0.29-0.91,0.29h-10.18v8.34
		h10.83c0.39,0,0.69,0.09,0.91,0.28c0.21,0.19,0.32,0.46,0.32,0.83c0,0.35-0.11,0.62-0.32,0.81c-0.22,0.2-0.52,0.29-0.91,0.29H267.6
		C267.19,73.42,266.86,73.3,266.61,73.06z"/>
	<path class="st0" d="M302.17,50.83c0.22,0.25,0.32,0.57,0.32,0.98v20.26c0,0.41-0.11,0.73-0.34,0.98
		c-0.23,0.24-0.54,0.37-0.95,0.37c-0.41,0-0.76-0.18-1.07-0.55l-13.41-17.82v17.02c0,0.41-0.11,0.73-0.34,0.98
		c-0.23,0.24-0.53,0.37-0.92,0.37s-0.69-0.12-0.9-0.37c-0.22-0.25-0.32-0.57-0.32-0.98V51.81c0-0.4,0.11-0.73,0.34-0.98
		c0.23-0.24,0.54-0.37,0.95-0.37c0.43,0,0.8,0.18,1.1,0.55l13.38,17.82V51.81c0-0.4,0.11-0.73,0.34-0.98
		c0.23-0.24,0.53-0.37,0.92-0.37S301.96,50.58,302.17,50.83z"/>
	<path class="st0" d="M311.38,72.04c-1.57-0.92-2.78-2.25-3.64-3.98c-0.85-1.73-1.28-3.77-1.28-6.13s0.43-4.37,1.28-6.1
		c0.85-1.73,2.06-3.06,3.64-3.98c1.57-0.92,3.44-1.38,5.59-1.38c1.44,0,2.81,0.23,4.09,0.68c1.28,0.46,2.4,1.11,3.34,1.96
		c0.34,0.32,0.52,0.69,0.52,1.12c0,0.3-0.09,0.56-0.26,0.78c-0.17,0.22-0.38,0.33-0.61,0.33c-0.26,0-0.57-0.12-0.94-0.35
		c-1.1-0.85-2.09-1.44-2.99-1.78c-0.89-0.34-1.92-0.51-3.09-0.51c-2.5,0-4.42,0.8-5.77,2.4c-1.35,1.6-2.02,3.88-2.02,6.83
		s0.67,5.26,2.02,6.86s3.27,2.41,5.77,2.41c1.14,0,2.17-0.17,3.07-0.51c0.91-0.34,1.91-0.93,3.01-1.78
		c0.37-0.23,0.68-0.35,0.94-0.35c0.24,0,0.44,0.11,0.61,0.32c0.17,0.21,0.26,0.48,0.26,0.8c0,0.42-0.17,0.8-0.52,1.12
		c-0.95,0.85-2.06,1.5-3.34,1.96c-1.28,0.46-2.65,0.68-4.09,0.68c-2.16,0-4.02-0.46-5.59-1.38V72.04z"/>
	<path class="st0" d="M328.74,73.05c-0.24-0.25-0.36-0.57-0.36-0.98V51.81c0-0.4,0.12-0.73,0.36-0.98c0.24-0.24,0.56-0.37,0.97-0.37
		c0.41,0,0.73,0.12,0.97,0.37s0.36,0.57,0.36,0.98v20.26c0,0.41-0.12,0.73-0.36,0.98c-0.24,0.24-0.56,0.37-0.97,0.37
		C329.3,73.42,328.98,73.3,328.74,73.05z"/>
	<path class="st0" d="M355.59,72.3c0,0.32-0.12,0.59-0.37,0.8c-0.25,0.21-0.54,0.32-0.89,0.32c-0.54,0-0.92-0.26-1.13-0.77
		l-2.29-5.19h-12.18l-2.33,5.19c-0.22,0.51-0.59,0.77-1.13,0.77c-0.34,0-0.65-0.11-0.91-0.34c-0.26-0.22-0.39-0.5-0.39-0.82
		c0-0.17,0.04-0.34,0.13-0.51l9.24-20.39c0.13-0.3,0.32-0.52,0.58-0.67s0.54-0.23,0.84-0.23c0.32,0,0.61,0.08,0.87,0.24
		c0.26,0.16,0.45,0.38,0.58,0.66l9.24,20.39c0.09,0.17,0.13,0.35,0.13,0.54L355.59,72.3z M349.94,65.28l-5.14-11.51l-5.11,11.51
		h10.24H349.94z"/>
	<path class="st0" d="M366.43,73.07c-0.25-0.24-0.37-0.55-0.37-0.94V51.77c0-0.39,0.12-0.7,0.37-0.94c0.25-0.24,0.58-0.36,0.99-0.36
		h6.3c3.64,0,6.46,0.99,8.45,2.98c1.99,1.99,2.99,4.82,2.99,8.49s-1,6.5-3.01,8.5c-2,2-4.81,3-8.43,3h-6.3
		C367.01,73.44,366.68,73.32,366.43,73.07L366.43,73.07z M373.56,71.14c5.9,0,8.86-3.07,8.86-9.22s-2.95-9.19-8.86-9.19h-4.85v18.4
		h4.85V71.14z"/>
	<path class="st0" d="M389.51,73.07c-0.25-0.24-0.37-0.55-0.37-0.94V51.77c0-0.39,0.12-0.7,0.37-0.94c0.25-0.24,0.58-0.36,0.99-0.36
		h12.09c0.39,0,0.69,0.1,0.91,0.29c0.21,0.2,0.32,0.47,0.32,0.81s-0.11,0.62-0.32,0.82c-0.22,0.2-0.52,0.29-0.91,0.29h-10.83v7.98
		h10.18c0.39,0,0.69,0.1,0.91,0.29c0.21,0.2,0.32,0.47,0.32,0.82s-0.11,0.62-0.32,0.81c-0.22,0.2-0.52,0.29-0.91,0.29h-10.18v8.34
		h10.83c0.39,0,0.69,0.09,0.91,0.28c0.21,0.19,0.32,0.46,0.32,0.83c0,0.35-0.11,0.62-0.32,0.81c-0.22,0.2-0.52,0.29-0.91,0.29H390.5
		c-0.41,0-0.74-0.12-0.99-0.36V73.07z"/>
	<path class="st0" d="M415.03,73.09c-0.25-0.23-0.37-0.52-0.37-0.89V51.82c0-0.41,0.12-0.74,0.36-0.99s0.56-0.37,0.97-0.37
		c0.41,0,0.73,0.12,0.97,0.37s0.36,0.58,0.36,0.99v19.34h10.44c0.39,0,0.69,0.1,0.9,0.29c0.22,0.19,0.32,0.48,0.32,0.84
		s-0.11,0.65-0.32,0.84c-0.22,0.19-0.52,0.29-0.9,0.29h-11.8c-0.37,0-0.67-0.11-0.92-0.34L415.03,73.09z"/>
	<path class="st0" d="M450.57,72.3c0,0.32-0.12,0.59-0.37,0.8s-0.54,0.32-0.89,0.32c-0.54,0-0.92-0.26-1.13-0.77l-2.29-5.19h-12.18
		l-2.33,5.19c-0.22,0.51-0.59,0.77-1.13,0.77c-0.34,0-0.65-0.11-0.91-0.34c-0.26-0.22-0.39-0.5-0.39-0.82
		c0-0.17,0.04-0.34,0.13-0.51l9.24-20.39c0.13-0.3,0.32-0.52,0.58-0.67s0.54-0.23,0.84-0.23c0.32,0,0.61,0.08,0.87,0.24
		c0.26,0.16,0.45,0.38,0.58,0.66l9.24,20.39c0.09,0.17,0.13,0.35,0.13,0.54L450.57,72.3z M444.91,65.28l-5.14-11.51l-5.11,11.51
		h10.24H444.91z"/>
</g>
<g>
	<path class="st1" d="M114.35,78.15c-1.71,24.25,18.28,40.37,38.53,51.84c1.51,0.86,3.39-0.23,3.39-1.97v-9.56
		c0-1.34-0.82-2.55-2.08-3.02c-13.61-5.16-23.57-18.92-22.83-32.94c0.7-13.15,10.08-25.76,23.06-30.49
		c1.12-0.41,1.85-1.48,1.85-2.66v-8.54c0-1.39-1.55-2.22-2.7-1.44c-6.77,4.59-14,8.59-20.86,13.1
		C123.35,58.63,115.15,66.8,114.35,78.15L114.35,78.15z"/>
	<path class="st1" d="M81.19,68.41c-3.89,6.75-6.4,14.59-5.56,22.36c0.8,7.43,4.96,14.3,9.78,20.05
		c10.53,12.54,24.3,23.22,38.3,32.08c8.06,5.1,16.49,9.62,25.21,13.56c0.08,0.04,0.54,0.15,0.92,0.24c0.28,0.06,0.57,0.08,0.85,0.05
		l2.01-0.2c1.97,0,3.56-1.59,3.56-3.56l0,0c0-1.5-0.85-2.88-2.19-3.55l-0.08-0.04c-12.85-6.53-25.57-13.83-35.94-23.68
		c-17.85-16.94-27.89-43.65-15.67-66.2c10.56-19.48,34.19-25.58,49.76-40.22c0.17-0.16,0.34-0.31,0.51-0.45
		c2.34-1.92,3.61-4.84,3.61-7.86V2.14c0-1.19-0.97-2.16-2.16-2.16l0,0c-1.03,0-2.04,0.35-2.85,1c-11.43,9.19-22.6,18.67-33.45,28.47
		C104.78,41.21,89.92,53.27,81.19,68.41L81.19,68.41z"/>
	<path class="st1" d="M66.47,113.64c-11-16.85-10.04-36.38-0.19-53.51c12.08-21.01,33.79-37.81,51.06-53.02
		c2.06-1.81,4.05-3.28,6.17-4.9c0.97-0.74,0.44-2.25-0.75-2.25H24.61C11.02-0.04,0,10.98,0,24.57v107.35
		c0,13.59,11.02,24.61,24.61,24.61H110c1.24,0,1.73-1.6,0.7-2.29c-0.95-0.63-1.9-1.27-2.84-1.92
		C92.48,141.69,76.6,129.15,66.47,113.64L66.47,113.64z"/>
	<path class="st1" d="M148.59,82.2c0.03-0.16,0.07-0.32,0.1-0.48C148.72,81.45,148.71,81.48,148.59,82.2z"/>
	<path class="st1" d="M148.67,85.5c-0.03-0.17-0.08-0.33-0.1-0.5C148.66,85.66,148.68,85.71,148.67,85.5z"/>
	<circle class="st1" cx="157.76" cy="82.44" r="11.86"/>
</g>
</svg>
